# xmcd
#
# Track frame offsets: 
#        150
#        5189
#        11110
#        19846
#        29860
#        38929
#        43388
#        49288
#        53170
#        65021
#        69218
#        76841
#        101846
#        119174
#        126745
#        134644
#        143704
#        146062
#        150867
#        163473
#        186999
#        193477
#        206295
#        211734
#        225142
#        234429
#        247132
#        254776
#        258247
#        266838
#        273670
#        288610
#        301575
#        312911
#        328436
#        334946
#        339677
#        345320
#        350440
#
# Disc length: 4829 seconds
#
# Revision: 0
# Processed by: cddbd v1.5.2PL0 Copyright (c) Steve Scherf et al.
# Submitted via: ExactAudioCopy v1.0b3
#
DISCID=7d12db27
DTITLE=Johnny Horton - The Singing Fisherman [Disc 9]
DYEAR=2014
DGENRE=Country
TTITLE0=Memphis To Mobile [2014]
TTITLE1=Schottische In Texas [2014]
TTITLE2=That Boy's Got A Habit [2014]
TTITLE3=Take It Like A Man (False Start)  [2014]
TTITLE4=Take It Like A Man [2014]
TTITLE5=Witch Walkin' Baby [2014]
TTITLE6=Alley Girl Ways [2014]
TTITLE7=Back Up Train [2014]
TTITLE8=Streets Of Dodge [2014]
TTITLE9=Sal's Got A Sugar Lip (Guitar) [2014]
TTITLE10=Sal's Got A Sugar Lip [2014]
TTITLE11=Johnny Reb [2014]
TTITLE12=North To Alaska [2014]
TTITLE13=Why Did It Happen To Me? [2014]
TTITLE14=Broken Hearted Gypsy [2014]
TTITLE15=The Train With The Rumba Beat? [2014]
TTITLE16=Lovely Gal [2014]
TTITLE17=That Boy's Got A Habbit [2014]
TTITLE18=Hot In The Sugar Cane Field [2014]
TTITLE19=You Don't Move Me Baby Anymore [2014]
TTITLE20=Mean Witch Walk [2014]
TTITLE21=The Vanishing Race [2014]
TTITLE22=Church By The Side Of The Road [2014]
TTITLE23=I Just Don't Like This Kind Of Living [2014]
TTITLE24=Take It Like A Man [2014]
TTITLE25=Hank And Joe And Me [2014]
TTITLE26=Ole Slewfoot [2014]
TTITLE27=Electricity [2014]
TTITLE28=The Golden Rocket [2014]
TTITLE29=Old Blind Barnabas [2014]
TTITLE30=Evil Hearted Me [2014]
TTITLE31=Rock Island Line [2014]
TTITLE32=Shake Rattle And Roll [2014]
TTITLE33=I Gave My Love A Cherry [2014]
TTITLE34=Whatcha Gonna Do [2014]
TTITLE35=Hooray For That Little Difference [2014]
TTITLE36=A-Sleeping At The Foot Of The Bed [2014]
TTITLE37=Old Dan Tucker [2014]
TTITLE38=The Gosh Darn Wheel [2014]
EXTD=
EXTT0=
EXTT1=
EXTT2=
EXTT3=
EXTT4=
EXTT5=
EXTT6=
EXTT7=
EXTT8=
EXTT9=
EXTT10=
EXTT11=
EXTT12=
EXTT13=
EXTT14=
EXTT15=
EXTT16=
EXTT17=
EXTT18=
EXTT19=
EXTT20=
EXTT21=
EXTT22=
EXTT23=
EXTT24=
EXTT25=
EXTT26=
EXTT27=
EXTT28=
EXTT29=
EXTT30=
EXTT31=
EXTT32=
EXTT33=
EXTT34=
EXTT35=
EXTT36=
EXTT37=
EXTT38=
PLAYORDER=
